<svg version="1.1" id="Uploaded to svgrepo.com" xmlns="http://www.w3.org/2000/svg" xmlns:xlink="http://www.w3.org/1999/xlink" viewBox="-16 -16 64.00 64.00" xml:space="preserve" fill="#8B5CF6" stroke="#8B5CF6" stroke-width="0.16"><g id="SVGRepo_bgCarrier" stroke-width="0"></g><g id="SVGRepo_tracerCarrier" stroke-linecap="round" stroke-linejoin="round"></g><g id="SVGRepo_iconCarrier"> <style type="text/css"> .feather_een{fill:#8B5CF6;} </style> <path class="feather_een" d="M10,12c-1.105,0-2,0.895-2,2s0.895,2,2,2c1.105,0,2-0.895,2-2S11.105,12,10,12z M10,15 c-0.551,0-1-0.449-1-1s0.449-1,1-1s1,0.449,1,1S10.551,15,10,15z M17.199,2.857c-0.711-0.54-1.687-0.543-2.4-0.006 c-2.791,2.104-9.499,7.942-9.789,15.634c-0.213,5.651,3.67,10.531,9.261,11.383C21.112,30.91,27,25.642,27,19 C27,11.112,20.05,5.023,17.199,2.857z M14.967,28.948c-5.235-0.528-9.184-5.237-8.955-10.494c0.313-7.193,6.726-12.781,9.386-14.797 c0.354-0.269,0.843-0.269,1.197,0C19.32,5.734,26,11.583,26,19C26,24.855,20.943,29.55,14.967,28.948z"></path> </g></svg>